<?xml version="1.0" encoding="UTF-8" standalone="no"?>
<svg
   viewBox="0 0 512 512"
   version="1.1"
   id="svg4"
   sodipodi:docname="user-alt-void.svg"
   inkscape:version="1.1.1 (3bf5ae0d25, 2021-09-20)"
   xmlns:inkscape="http://www.inkscape.org/namespaces/inkscape"
   xmlns:sodipodi="http://sodipodi.sourceforge.net/DTD/sodipodi-0.dtd"
   xmlns="http://www.w3.org/2000/svg"
   xmlns:svg="http://www.w3.org/2000/svg">
  <defs
     id="defs8" />
  <sodipodi:namedview
     id="namedview6"
     pagecolor="#ffffff"
     bordercolor="#666666"
     borderopacity="1.0"
     inkscape:pageshadow="2"
     inkscape:pageopacity="0.0"
     inkscape:pagecheckerboard="0"
     showgrid="false"
     inkscape:zoom="1.5859375"
     inkscape:cx="255.68473"
     inkscape:cy="255.05419"
     inkscape:window-width="1920"
     inkscape:window-height="1001"
     inkscape:window-x="-9"
     inkscape:window-y="-9"
     inkscape:window-maximized="1"
     inkscape:current-layer="svg4" />
  <!-- Font Awesome Free 5.15.4 by @fontawesome - https://fontawesome.com License - https://fontawesome.com/license/free (Icons: CC BY 4.0, Fonts: SIL OFL 1.1, Code: MIT License) -->
  <path
     d="M 256,288 C 335.5,288 400,223.5 400,144 400,64.5 335.5,0 256,0 176.5,0 112,64.5 112,144 c 0,79.5 64.5,144 144,144 z m 128,32 h -55.1 c -22.2,10.2 -46.9,16 -72.9,16 -26,0 -50.6,-5.8 -72.9,-16 H 128 C 57.3,320 0,377.3 0,448 v 16 c 0,26.5 21.5,48 48,48 h 416 c 26.5,0 48,-21.5 48,-48 V 448 C 512,377.3 454.7,320 384,320 Z"
     id="path2" />
  <ellipse
     style="fill:#ff0000;fill-rule:evenodd;stroke-width:1.22045"
     id="path36"
     ry="127.68474"
     rx="128.94582"
     cy="144.70935"
     cx="255.68472" />
  <path
     style="fill:#ffffff;stroke:#000000;stroke-width:1px;stroke-linecap:butt;stroke-linejoin:miter;stroke-opacity:1"
     d="m 37.20197,491.82266 -22.068965,-24.59113 2.522167,-37.20197 15.763547,-42.87685 34.679803,-31.52709 47.921178,-13.24138 51.0739,-1.89163 h 15.133 l 34.6798,12.61084 21.43843,0.63054 27.74384,0.63054 21.43842,-1.26108 18.91626,-6.30542 18.91626,-5.04434 12.61083,-6.93596 56.74877,1.89163 22.69951,3.15271 27.1133,14.50246 20.17734,19.5468 9.45813,17.65517 10.08867,28.37439 5.04433,22.6995 0.63054,25.22168 -6.93596,17.65517 -5.67487,6.93596 z"
     id="path2048" />
  <path
     style="fill:#ffffff;stroke-width:0.630542"
     d="m 247.48768,271.70158 c -30.81439,-1.68772 -60.89832,-15.25651 -82.98568,-37.42914 -49.87696,-50.06953 -49.87128,-129.38812 0.0128,-179.137782 16.82185,-16.776516 36.92657,-28.123016 60.22405,-33.988646 19.21182,-4.83698 42.67987,-4.83698 61.8917,0 37.33008,9.398632 68.21536,34.209319 84.74649,68.078355 23.28566,47.707703 14.45688,104.158163 -22.36774,143.017453 -21.37192,22.55279 -53.60187,37.74648 -83.23593,39.2387 -3.64138,0.18336 -7.47192,0.40524 -8.51232,0.49306 -1.04039,0.0878 -5.43842,-0.0346 -9.7734,-0.272 z"
     id="path2124" />
</svg>
